# xmcd CD database file generated by Grip 3.0.5
# 
# Track frame offsets:
#       150
#       17152
#       36535
#       54555
#       75802
#       98222
#       112712
#       130252
#       149205
#       171605
#       191392
#       206005
#       230170
#       252585
#       264867
#       282465
#       299802
#       318822
# 
# Disc length: 4495 seconds
# 
# Revision: 1
# Processed by: cddbd v1.5.1PL0 Copyright (c) Steve Scherf et al.
# Submitted via: Grip 3.0.5
# 
DISCID=16118d12
DTITLE=Otis Spann - Walking The Blues
DYEAR=1960
DGENRE=Blues
TTITLE0=It Must Have Been The Devil
TTITLE1=Otis Blues
TTITLE2=Going Down Slow
TTITLE3=Half Ain't Been Told
TTITLE4=Monkey Face Woman
TTITLE5=This Is The Blues
TTITLE6=Evil Ways
TTITLE7=Come Day Go Day
TTITLE8=Walking The Blues
TTITLE9=Bad Condition
TTITLE10=My Home Is In The Delta
TTITLE11=Talkin' The Blues (Take 3)
TTITLE12=It Hurts Me Too
TTITLE13=One Doggone Reason
TTITLE14=Strange Woman Blues
TTITLE15=The Girl I Love
TTITLE16=Come Day Go Day (Take 3)
TTITLE17=Baby Child (Take 5)
EXTD=
EXTT0=
EXTT1=
EXTT2=
EXTT3=
EXTT4=
EXTT5=
EXTT6=
EXTT7=
EXTT8=
EXTT9=
EXTT10=
EXTT11=
EXTT12=
EXTT13=
EXTT14=
EXTT15=
EXTT16=
EXTT17=
PLAYORDER=
